<svg xmlns="http://www.w3.org/2000/svg" width="275.126" height="222.147" viewBox="0 0 275.126 222.147">
  <defs>
    <style>
      .cls-1 {
        fill: #402c1c;
      }
    </style>
  </defs>
  <path id="Exclusion_1" data-name="Exclusion 1" class="cls-1" d="M85.814,179.109a153.335,153.335,0,0,1-20.828-1.465c-2.289-1.324-19.582-12-22.922-33.75.91-.977,3.961-3.691,11.027-5.582,1.176-.312,2.414-.59,3.7-.828a80.259,80.259,0,0,1,13.632-1.054,169.671,169.671,0,0,1,32.723,3.7,79.761,79.761,0,0,0,15.316,1.777,34.7,34.7,0,0,0,5.941-.484c4.918-.723,8.344-2.555,10.2-5.48,1.266-2,4.594-9.6-5.383-24.133.273-.1.555-.191.84-.277.648-.223,1.32-.4,1.965-.566l.117-.031q.246-.047.492-.1c.141-.031.277-.059.41-.086.148-.023.293-.051.445-.066l.5-.059c.086-.008.172-.012.258-.016l.406-.027c.094,0,.188-.012.277-.016h.473a10.3,10.3,0,0,1,1.711.168,2.463,2.463,0,0,1,.43.1c.1.027.2.055.3.074a2.884,2.884,0,0,1,.461.145l.18.066a5.514,5.514,0,0,1,.762.32,2.887,2.887,0,0,0,.273.125c.184.1.344.2.473.273l2.043,1.16-.668-.9,1.371.781-1.273-1.715c-.035-.043-.07-.094-.113-.152a5.933,5.933,0,0,0-.434-.52c-.062-.059-.129-.121-.2-.187a5.35,5.35,0,0,0-.852-.719,4.811,4.811,0,0,0-.684-.441c-.07-.039-.141-.078-.215-.117a4.409,4.409,0,0,0-.609-.3,9.19,9.19,0,0,0-2.035-.594l-.551-.09c-.125-.016-.254-.027-.383-.035l-.167,0a7.273,7.273,0,0,0-.773-.035h-.422a15.12,15.12,0,0,0-2.437.258c-.055.008-.1.027-.152.039-.187.027-.359.043-.555.078a21.023,21.023,0,0,0-2.395.617,22.245,22.245,0,0,0-2.285.875c-.68.3-1.367.641-2.1,1.047a28.836,28.836,0,0,0-3.453,2.258,24.525,24.525,0,0,0-2.207,1.9c-.191.18-.344.344-.465.473l-.117.125c-.137.148-.207.234-.207.234l-1.055,1.3.984-.457-.27.336,5.379-2.5c.434-.2.891-.414,1.379-.629.539-.246,1.109-.492,1.691-.746l.125-.051c1.82,2.629,9.809,14.844,5.621,21.434-1.187,1.871-3.344,3.164-6.434,3.871a30.945,30.945,0,0,1-5.891.516,76.966,76.966,0,0,1-14.758-1.719c-19.57-3.922-35.934-4.789-47.953-2.586-.7.117-1.371.25-2.039.387-.824-7.68,2.52-15.645,2.555-15.727l1.176-2.758-3.613.961a14.039,14.039,0,0,1-1.426.328,16.392,16.392,0,0,1-2.379.191,6.031,6.031,0,0,1-3.582-.867,2.942,2.942,0,0,1-1.059-2.535c0-6.586,9.785-16.3,9.883-16.4l1.324-1.293-1.6-.941c-5.145-3.031-10.793-9.16-11.82-16.016a13.293,13.293,0,0,1,3.672-11.348,10.328,10.328,0,0,1,5.945-3.168,15.709,15.709,0,0,1,2.008-.133c9.8,0,21.66,7.9,21.777,7.977l.988.664.348-.359.379.254L79.834,73c.156-.16,15.586-16,44.77-24.781a31.473,31.473,0,0,1,9.23,4.535c4.77,3.34,11.211,9.664,14.9,20.871a19.777,19.777,0,0,1-2.953,4.1,32.706,32.706,0,0,1-12.527,8.2l-5.562,2.148,5.934.586c.152.016,15.555,1.715,25.578,15.078a21.817,21.817,0,0,1-2.953,4.906,36.889,36.889,0,0,1-13.918,10.539l-1.312.605.633,1.3c.105.223,10.715,22.324,7.246,34.031-1.414,4.781-8.891,12.387-25.293,18.086a104.027,104.027,0,0,1-13.066,3.551,127.2,127.2,0,0,1-24.727,2.355m178.57-52.734c-13.7-36.691-49.652-47.437-74.555-53.836L158.3,13.713S136.693,0,98.723,0A169.993,169.993,0,0,0,69.078,2.668L83.047,4.4C70,8.019,63.52,13.714,63.52,13.714c-9.184,14.6-13.9,39.438-13.9,39.438A55.543,55.543,0,0,0,38.194,77.179s-.571,13.364,12.329,22.841c-3.215,3.84-7.246,9.648-7.246,14.6a5.66,5.66,0,0,0,2.188,4.8,8.724,8.724,0,0,0,5.3,1.43,19.046,19.046,0,0,0,2.711-.207c-.3.93-.637,2.074-.941,3.344C20.726,152.659,6.328,194.635,0,222.147c.516-.832,273.332-.8,274.576,0,0,0,1.238-22.028,0-40-1.524-17.727-.47-29.752-10.189-55.783"/>
</svg>
