<svg xmlns="http://www.w3.org/2000/svg" width="232.171" height="379.966" viewBox="0 0 232.171 379.966">
  <defs>
    <style>
      .cls-1 {
        fill: #ee7416;
      }
    </style>
  </defs>
  <path id="Path_539" data-name="Path 539" class="cls-1" d="M408.366,490.228s-1.894-7.117-4.359-11.1,1.226-4.61-12.994-6.365a113.468,113.468,0,0,0-16.351-.432s-9.164.237-35.709,2.577c-54.915,4.833-54.595,18.231-56.99,21.128s10.724,29.693,14.624,33.091,8.12,1.365,8.7-2.187-3.83-1.5-2.4-4.443,5.5-14.484,51.419-20.6c7.214-.975,13.384-1.825,18.663-2.591a48.944,48.944,0,0,1-1.142,6.908v1.894a24.69,24.69,0,0,1-1.267,6.17q-1.274,9.359-6.657,26.838a179.625,179.625,0,0,1-16.169,36.322A165.513,165.513,0,0,1,321.1,612.188a84.85,84.85,0,0,1-38.049,22.1q-26.636,7.792-39.637-2.7T225.975,602.1q-4.45-18.969-2.855-42.088a376.311,376.311,0,0,1,4.763-40.723,349.983,349.983,0,0,1,27.9-87.212q19.658-41.719,41.865-71.683,22.186-29.937,42.8-45.068,20.6-15.1,30.765-8.022c3.384,2.577,4.958,6.225,4.749,10.947a50.7,50.7,0,0,1-3.8,15.975,131.955,131.955,0,0,1-9.512,19q-6.037,10.132-12.367,20.041c-2.535,3.454-4.345,5.181-5.39,5.139a3.456,3.456,0,0,0-2.855,1.671,7.037,7.037,0,0,0-1.267,4.276c0,.85.209,1.184.641,1.031q4.429,3.468,11.406,3.454,6.33.23,15.543-3.44,9.171-3.656,22.52-13.579a14.385,14.385,0,0,0,3.8-5.195l1.267-2.994q13.934-36.141,10.139-52.854-3.8-16.692-13.955-21.866-12.033-6.372-31.7-2.409-31.086,8.774-61.516,34.442a292.646,292.646,0,0,0-27.269,26.406,287.863,287.863,0,0,0-27.91,36.475,453.238,453.238,0,0,0-27.59,49.052,489.666,489.666,0,0,0-25.041,62.38Q175.872,541.4,176.826,575.6q.961,34.24,13.635,55.291,12.681,21.079,34.567,29.275t48.508,2.326a7.177,7.177,0,0,0,3.175-.529l7.6-2.772c8.76-2.813,35.807-9.415,79.274-53.592q15.229-18.2,26.963-44.052c7.813-17.2,15.334-53.118,14.819-58.884-.432-4.888-8.579-6-14.039-6.2,11.7-1.964,13.83-2.744,15.766-2.925,3.189-.292,1.267-3.315,1.267-3.315" transform="translate(-176.769 -284.98)"/>
</svg>
