<svg xmlns="http://www.w3.org/2000/svg" width="32.618" height="29.943" viewBox="0 0 32.618 29.943">
  <defs>
    <style>
      .cls-1 {
        fill: #402c1c;
      }
    </style>
  </defs>
  <path id="Path_400" data-name="Path 400" class="cls-1" d="M285.594,183.4c-.172-.07-.344-.129-.523-.191a1.707,1.707,0,0,0-.543-.094l-.086-.008a3.208,3.208,0,0,0-.562.02l-.535.047-.227.039c-.246.047-.5.09-.742.156-.1.031-.191.059-.289.086a5.857,5.857,0,0,0-.609.2l-.262.1c-.2.074-.391.148-.586.238l-.793.379c-.172.086-.34.18-.5.273l-.262.145c-.262.145-.52.293-.758.449l-.723.457c-.16.1-.316.215-.473.324l-.223.156c-.473.316-.922.66-1.367,1-.437.32-.855.664-1.32,1.043l-1.613,1.371c-.309.266-.617.531-.91.809l-1.227,1.121-1.184,1.141c-.516.488-1.016.988-1.516,1.492l-.832-.531q-.914-.574-1.859-1.113a29.749,29.749,0,0,0-3.988-1.941,10.325,10.325,0,0,0-2.371-.641l-.207-.023a2.8,2.8,0,0,0-2.227.563,2.492,2.492,0,0,0-.687.848,2.9,2.9,0,0,0-.223,1.676,5.434,5.434,0,0,0,.367,1.23,8.429,8.429,0,0,0,.523,1.047c.191.32.395.637.605.938l.953,1.34-.285-1.836c-.043-.277-.086-.555-.117-.824l-.02-.2c-.027-.273-.055-.539-.055-.809a3.958,3.958,0,0,1,.078-.867c.039-.18.105-.3.082-.3a.7.7,0,0,1,.086.008h.035a1.429,1.429,0,0,0,.418.016,1.358,1.358,0,0,1,.328.008,7.745,7.745,0,0,1,1.707.473,26.919,26.919,0,0,1,3.594,1.758c.59.336,1.18.691,1.754,1.051l.9.574c-.113.438-.254,1-.41,1.652l-.52,2.1-1.234,5.434c-.121.5-.219,1.012-.316,1.5l-1.086,5.566.75.191,1.711-5.348c.152-.477.309-.969.488-1.469L268.3,199c.285-.77.527-1.406.707-1.855l.145-.375.6-.6c.492-.492.984-.988,1.488-1.469l2.348-2.2c.285-.266.574-.52.867-.77l1.629-1.375c.379-.312.758-.625,1.16-.918.414-.32.832-.637,1.262-.926l.262-.184q.193-.135.375-.258l.668-.422c.211-.137.426-.262.641-.379l.25-.141c.141-.078.277-.156.41-.223l.672-.324c.133-.059.27-.109.406-.16l.273-.109a2.964,2.964,0,0,1,.387-.125c.09-.027.184-.051.258-.078.133-.035.262-.059.391-.082a.9.9,0,0,0,.191-.039l.145-.008a1.342,1.342,0,0,1,.441.016c.148.008.289,0,.43,0h.152a1.53,1.53,0,0,1,.871.328,2.949,2.949,0,0,1,.777,1,5.993,5.993,0,0,1,.523,1.426l.367,1.59.387-1.586a5.834,5.834,0,0,0,.145-1.832,4.556,4.556,0,0,0-.574-1.945,3.844,3.844,0,0,0-1.762-1.566" transform="translate(-255.328 -183.098)"/>
</svg>
