<svg xmlns="http://www.w3.org/2000/svg" width="120.171" height="133.66" viewBox="0 0 120.171 133.66">
  <defs>
    <style>
      .cls-1 {
        fill: #fbc822;
      }
    </style>
  </defs>
  <path id="Path_370" data-name="Path 370" class="cls-1" d="M328.2,207.9l.641,1.328c.109.227,10.926,22.758,7.391,34.7-1.445,4.875-9.062,12.629-25.785,18.434a120.187,120.187,0,0,1-39.27,6.172,157.009,157.009,0,0,1-21.242-1.492c-2.336-1.352-19.969-12.238-23.379-34.422A21.08,21.08,0,0,1,237.8,225.4c1.031-1.348,1.1-1.031,1.371-1.812-.848-7.836,2.566-15.977,2.6-16.059l1.684-1.973-3.355.82c-.836.246-2.809-.148-4.691-.148a6.139,6.139,0,0,1-3.652-.887,2.993,2.993,0,0,1-1.078-2.586c0-6.715,9.977-16.621,10.074-16.719l1.352-1.316-1.629-.961c-5.246-3.094-11.008-9.344-12.055-16.336a13.558,13.558,0,0,1,3.746-11.574c2.109-2.3,5.086-3.473,8.855-3.473,9.992,0,22.086,8.051,22.2,8.133l1.012.68.84-.879c.16-.164,16.07-16.508,46.176-25.43a31.863,31.863,0,0,1,9.617,4.684c4.859,3.4,11.43,9.852,15.188,21.277-.371.719-1.293,3.824-3.012,5.7-2.207,2.414-3.176,4.3-9.73,6.832l-5.672,2.191,3.008.6c.16.016,15.863,1.75,26.078,15.371a22.108,22.108,0,0,1-3.008,5,37.631,37.631,0,0,1-14.187,10.742Zm0,0" transform="translate(-226.556 -134.88)"/>
</svg>
