<svg xmlns="http://www.w3.org/2000/svg" width="81.8" height="31.814" viewBox="0 0 81.8 31.814">
  <defs>
    <style>
      .cls-1 {
        fill: #402c1c;
      }
    </style>
  </defs>
  <path id="Path_401" data-name="Path 401" class="cls-1" d="M317.758,155.121l3.281,1-2.977-1.7a26.956,26.956,0,0,0-5.152-2.234,24.691,24.691,0,0,0-5.625-1.129,11.27,11.27,0,0,0-2.621.164l-.359.051a14.828,14.828,0,0,0-2.914.766,14.009,14.009,0,0,0-2.68,1.445c-.7.461-1.43.984-2.3,1.648-1.59,1.219-3.062,2.453-4.3,3.5q-2.092,1.781-4.145,3.6l-2.41,2.129c-1.895,1.676-3.848,3.406-5.789,5.078-1.6,1.379-2.918,2.48-4.156,3.477-1.156.926-2.687,2.129-4.277,3.191a20.088,20.088,0,0,1-2.2,1.3,7.431,7.431,0,0,1-1.062.438,2.626,2.626,0,0,1-.7.129l-.129-.062h-.012l-.719-.336c-.391-.191-.785-.4-1.18-.6l-.473-.262a5.631,5.631,0,0,1-.711-.691,5.415,5.415,0,0,1-.621-.871,6.071,6.071,0,0,1-.453-1.008A6.685,6.685,0,0,1,262.82,173a5.339,5.339,0,0,1-.062-.578,5.493,5.493,0,0,1-.02-.574,9.188,9.188,0,0,1,.055-1.043v-.078c.047-.34.09-.668.156-.98s.125-.586.191-.844c.059-.242.121-.453.18-.633l.18-.574-.719-.285-.258.535a6.833,6.833,0,0,0-.293.656,9.1,9.1,0,0,0-.336.855c-.121.32-.223.68-.344,1.113a11.5,11.5,0,0,0-.238,1.172c-.035.227-.062.453-.074.672a6.043,6.043,0,0,0-.027.7,8.239,8.239,0,0,0,.121,1.461c.02.082.035.164.051.246a89.2,89.2,0,0,0-8.355-4.1l-.527-.207a17.915,17.915,0,0,0-4.988-1.41,13.524,13.524,0,0,0-3-.055,6.85,6.85,0,0,0-3.008.984c-.086.047-.152.09-.234.137s-.184.125-.277.191a4.846,4.846,0,0,0-.512.426,4.11,4.11,0,0,0-.832,1.063,3.289,3.289,0,0,0-.4,1.3,3.417,3.417,0,0,0,.148,1.3l1,3.316-.242-3.457a2.567,2.567,0,0,1,.1-.953,2.13,2.13,0,0,1,.441-.781,3.3,3.3,0,0,1,.707-.59,4.234,4.234,0,0,1,.414-.219c.07-.031.145-.066.215-.09s.129-.051.172-.062l.117-.043a5.469,5.469,0,0,1,2.262-.332,11.025,11.025,0,0,1,2.414.422c.48.16.961.309,1.449.461a37.176,37.176,0,0,1,3.512,1.23c1.18.484,2.426,1.051,3.785,1.723-7.465,1.215-9.277,5.176-9.352,5.355l-.469,1.066,1.012-.578a29.792,29.792,0,0,1,8-3.18c.191,3.262,1.387,5.117,3.309,5.117a2.068,2.068,0,0,0,1.52-.633c.977-.984,1.234-2.949,1.285-4.355l.734.4c.738.406,1.48.809,2.234,1.207q.615.328,1.254.645c.215.1.43.207.668.316l.539.258.043-.027a3.312,3.312,0,0,0,.438.1,4.529,4.529,0,0,0,1.961-.219,10.3,10.3,0,0,0,1.473-.6,23.455,23.455,0,0,0,2.512-1.48c1.668-1.113,3.2-2.312,4.484-3.34,1.254-1.008,2.594-2.133,4.23-3.539,1.516-1.3,3.012-2.621,4.508-3.941a36.116,36.116,0,0,1,10.043-2.68c.023,1.633.277,4.719,1.828,6.285a3.121,3.121,0,0,0,2.293.957,2.527,2.527,0,0,0,1.879-.809c1.438-1.492,1.6-4.7,1.574-6.406a28.273,28.273,0,0,1,5.332,1.223l1.23.414-.8-1.02c-.113-.145-2.855-3.512-10.684-3.512a35.611,35.611,0,0,0-7.363.848q1.242-1.09,2.5-2.16c1.129-.957,2.625-2.211,4.18-3.4.824-.629,1.5-1.117,2.141-1.535a11.9,11.9,0,0,1,2.117-1.16,12.149,12.149,0,0,1,2.375-.621,10.8,10.8,0,0,1,1.453-.133c.359-.016.719-.035,1.074-.074a23.908,23.908,0,0,1,5.211.152c.887.113,1.773.262,2.641.449s1.75.4,2.613.664" transform="translate(-239.239 -151.041)"/>
</svg>
